<svg width="729" height="730" viewBox="0 0 729 730" fill="none" xmlns="http://www.w3.org/2000/svg">
<path d="M2.75059 311.262C28.4656 142.663 163.098 15.9639 333.046 0.432543C346.975 -0.841267 403.798 0.901176 417.532 3.02277C546.405 22.9308 654.705 108.98 702.958 229.812C745.908 337.364 733.404 461.489 669.858 558.404C658.831 575.22 639.227 600.55 632.031 607.281L628.305 610.764L614.505 606.289C593.88 599.602 580.279 596.449 551.494 591.68C459.315 576.409 441.729 569.091 426.455 539.64C415.291 518.116 412.133 500.367 411.974 458.24C411.839 422.95 412.634 417.507 420.423 400.447C431.218 376.794 451.806 363.095 476.557 363.095C495.478 363.095 518.293 368.39 519.797 373.13C524.389 387.598 542.733 390.666 553.074 378.696L556.685 374.515L567.958 376.97C578.586 379.285 579.295 379.676 580.364 383.814C585.215 402.584 613.253 402.29 618.334 383.416C623.432 364.481 601.145 351.105 585.889 363.943L581.642 367.517L569.054 365.204C557.669 363.11 556.227 362.483 553.946 358.623C548.21 348.911 536.25 346.169 527.002 352.444C520.167 357.082 517.323 356.764 486.415 347.893C477.132 345.227 474.339 346.63 514.686 333.696L543.684 324.402L546.435 328.178C556.434 341.904 582.183 339.842 588.849 324.781C591.032 319.851 592.345 319.723 623.825 321.417C640.802 322.329 641.022 322.385 642.597 326.186C651.452 347.566 682.998 348.905 692.458 328.303C707.144 296.32 660.18 273.34 644.119 304.65L641.495 309.764L618.259 309.311C591.505 308.788 593.797 309.454 590.113 301.127L587.254 294.66L595.846 284.143C600.571 278.359 607.431 270.448 611.09 266.562L617.742 259.496L624.292 261.078C646.567 266.454 665.184 243.489 655.226 222.918C644.999 201.792 616.392 202.37 605.209 223.927L601.894 230.318H538.264L536.247 226.107L534.228 221.895L547.581 209.234C575.844 182.434 577.496 181.223 583.508 182.883C592.801 185.449 604.193 181.092 608.672 173.257C621.66 150.533 594.563 126.971 574.683 143.701C568.721 148.72 566.814 154.373 567.719 164.359L568.491 172.856L547.082 192.521L525.674 212.186L520.945 209.396C515.25 206.036 515.078 203.904 519.135 187.005C520.728 180.366 523.317 168.864 524.887 161.444C529.543 139.441 529.635 139.257 536.829 137.445C566.559 129.958 563.091 86.9622 532.597 85.0195C515.172 83.9104 503.438 94.8053 503.438 112.096V119.665L493.143 124.151C487.48 126.618 471.667 133.69 458 139.866C444.333 146.042 432.934 150.535 432.668 149.85C432.12 148.439 433.212 146.581 453.709 114.052C468.334 90.8404 468.671 90.4399 473.588 90.4087C490.293 90.305 501.532 74.5308 495.162 60.1298C483.693 34.1992 447.288 49.4622 455.829 76.6197L458.237 84.2768L443.492 107.594C419.405 145.689 422.651 141.764 416.112 140.706C403.159 138.609 404.042 140.82 404.042 110.491V83.6108L411.686 79.2966C435.41 65.9053 426.568 30.7356 399.499 30.8194C371.938 30.906 363.283 63.7808 386.685 79.4982L392.683 83.527V142.656L389.13 144.984C378.742 151.792 374.755 168.279 380.439 180.922L383.105 186.85L378.851 192.252C372.197 200.706 364.209 213.552 356.96 227.459C350.656 239.554 350.262 239.998 349.43 235.979C346.467 221.642 342.26 207.744 338.116 198.607L333.359 188.116L337.463 180.317C343.611 168.625 342.38 158.398 333.66 148.746L328.786 143.349V80.9311L334.556 78.3281C358.265 67.6363 348.658 30.3905 322.19 30.3905C293.904 30.3905 285.927 66.7871 311.392 79.6601L316.006 81.9919V138.331L308.036 139.931C303.653 140.812 299.564 141.22 298.949 140.841C298.334 140.461 292.235 130.723 285.398 119.201C278.56 107.678 270.884 94.8436 268.338 90.6785C263.923 83.4517 263.803 82.8866 265.719 78.2983C276.625 52.1987 245.673 34.0529 228.893 56.7074C219.851 68.9144 230.352 88.7543 246.288 89.5737C253.667 89.9529 253.146 89.328 271.091 119.329C287.281 146.395 290.059 151.503 288.587 151.503C287.074 151.503 273.398 145.35 246.785 132.691L219.451 119.691L219.448 111.811C219.447 102.183 216.374 95.7042 209.024 89.8307C201.071 83.4745 184.394 83.3395 176.232 89.5652C158.54 103.062 164.298 131.835 185.791 137.335C189.076 138.176 192.401 139.07 193.182 139.325C194.537 139.766 209.533 199.374 209.519 204.261C209.514 205.55 207.173 207.985 204.314 209.673L199.117 212.738L190.47 204.496C183.412 197.747 176.379 190.973 169.368 184.174L156.914 172.094L157.745 164.284C160.301 140.261 130.885 128.042 117.102 147.404C104.621 164.933 121.28 188.665 142.04 182.932C147.213 181.504 147.33 181.569 159.565 192.673C192.829 222.856 191.419 221.272 189.583 226.412L187.934 231.028H156.227C123.056 231.028 120.056 230.487 120.056 224.498C120.056 220.661 107.85 209.991 101.504 208.281C89.8039 205.131 76.0007 211.443 70.3451 222.533C60.0208 242.772 78.2258 266.186 100.321 261.085C104.266 260.175 108.019 259.429 108.661 259.429C109.701 259.429 135.084 288.961 137.516 293.001C139.192 295.786 133.062 307.618 129.579 308.321C127.855 308.669 116.832 309.322 105.084 309.772L83.7223 310.592L80.6311 304.228C72.2294 286.933 45.8555 284.813 35.4119 300.594C20.3464 323.362 39.7044 349.15 66.3139 341.758C71.65 340.276 80.6865 331.656 82.3294 326.484C83.559 322.606 86.1561 322.126 111.891 321.019C128.007 320.326 134.255 320.501 134.255 321.646C134.255 324.464 143.303 333.638 148.031 335.615C158.478 339.98 170.31 337.156 177.926 328.48L182.506 323.264L194.233 326.258C213.32 331.127 249.332 343.383 248.503 344.726C247.604 346.179 232.862 350.707 218.382 353.979C208.337 356.247 208.16 356.236 203.764 353.106C194.057 346.193 180.922 348.501 175.253 358.112C170.987 365.341 148.055 370.069 142.368 364.893C125.42 349.461 101.959 365.52 110.741 386.54C117.206 402.015 142.356 400.572 147.186 384.45L148.808 379.034L160.889 376.634L172.969 374.235L176.968 378.612C186.873 389.459 202.3 387.708 208.455 375.039C211.748 368.258 218.025 365.931 240.395 363.198C278.949 358.488 310.132 381.431 321.317 422.738C328.818 450.442 322.165 507.115 307.987 536.282C291.956 569.26 275.744 576.088 171.173 593.902C151.855 597.193 123.57 603.645 104.702 609.064L98.5791 610.823L93.6931 605.18C41.4921 544.9 14.0788 487.773 2.73499 415.638C-0.918502 392.401 -0.910003 335.266 2.75059 311.262Z" fill="#3CA6A6"/>
<path d="M325.348 67.6818C310.889 72.4546 302.568 50.6437 316.667 44.9293C322.097 42.7281 326.145 43.5575 330.315 47.7282C337.068 54.4821 334.537 64.6485 325.348 67.6818Z" fill="#3CA6A6"/>
<path d="M391.154 64.9879C384.67 58.5038 386.424 48.3403 394.61 44.9548C404.617 40.8153 414.895 51.953 410.135 61.7799C406.252 69.8019 397.454 71.2887 391.154 64.9879Z" fill="#3CA6A6"/>
<path d="M183.352 102.789C185.364 100.777 188.4 98.9064 190.097 98.6338C204.928 96.2495 211.34 115.571 198.006 122.467C185.455 128.958 173.388 112.754 183.352 102.789Z" fill="#3CA6A6"/>
<path d="M534.712 123.087C519.616 129.34 510.216 106.13 525.204 99.6108C530.784 97.1825 529.668 97.1896 535.318 99.5497C546.151 104.077 545.78 118.502 534.712 123.087Z" fill="#3CA6A6"/>
<path d="M214.194 170.674C205.703 134.962 205.858 136.104 209.156 133.599C213.233 130.505 214.625 130.982 249.308 147.394C287.852 165.633 284.23 163.168 285.136 171.782L285.848 178.569L269.335 191.768C260.251 199.028 250.783 206.448 248.295 208.257L243.773 211.546L237.307 208.505C233.751 206.834 229.274 205.466 227.36 205.466C222.474 205.466 222.454 205.415 214.194 170.674Z" fill="#3CA6A6"/>
<path d="M467.384 149.281C483.699 141.902 498.965 134.951 501.308 133.835C510.641 129.386 518.432 133.174 516.955 141.445C516.227 145.526 507.219 187.196 504.125 200.8C503.609 203.065 501.728 204.397 497.397 205.564C494.09 206.455 489.145 208.322 486.407 209.715L481.429 212.247L457.649 194.526L433.869 176.803L434.757 170.899C435.935 163.054 433.797 164.471 467.384 149.281Z" fill="#3CA6A6"/>
<path d="M303.385 179.11C295.402 172.391 296.604 160.098 305.73 155.146C313.047 151.175 321.348 153.925 325.338 161.64C332.455 175.405 315.251 189.096 303.385 179.11Z" fill="#3CA6A6"/>
<path d="M396.091 177.917C388.552 170.378 389.653 161.352 398.808 155.62C404.982 151.755 412.054 152.894 417.177 158.577C429.797 172.577 409.43 191.257 396.091 177.917Z" fill="#3CA6A6"/>
<path d="M401.617 196.657C409.702 197.174 418.283 194.993 422.722 191.294C424.553 189.769 426.717 188.499 427.529 188.472C428.576 188.439 469.905 218.44 473.202 221.625C473.362 221.782 472.5 224.759 471.288 228.243C469.734 232.703 469.338 237.138 469.947 243.226L470.812 251.876L455.863 259.847C427.17 275.145 408.964 288.228 390.862 306.553L374.134 323.49L371.252 316.975C357.41 285.681 365.706 234.084 389.521 203.336C394.865 196.436 395.207 196.247 401.617 196.657Z" fill="#3CA6A6"/>
<path d="M261.82 213.477C268.42 208.241 275.053 203.047 281.719 197.896C293.899 188.505 291.9 189.123 298.165 192.819C301.072 194.534 306.889 196.126 311.91 196.582C321.973 197.495 323.227 199.26 329.034 220.687C332.019 231.699 333.875 287.474 331.34 290.009C330.836 290.515 327.019 288.362 322.86 285.228C312.53 277.444 292.88 266.072 272.308 255.974L255.145 247.55L255.857 241.063C256.27 237.29 255.689 231.739 254.465 227.791L252.364 221.006L261.82 213.477Z" fill="#3CA6A6"/>
<path d="M202.852 236.319C203.734 229.742 209.486 223.035 215.847 221.164C234.785 215.593 248.371 238.27 234.441 252.201C221.978 264.665 200.499 253.865 202.852 236.319Z" fill="#3CA6A6"/>
<path d="M487.674 248.578C482.191 240.262 485.813 227.259 495.027 222.176C511.252 213.226 530.029 232.071 520.484 247.726C512.503 260.818 496.024 261.245 487.674 248.578Z" fill="#3CA6A6"/>
<path d="M94.4968 248.069C82.5324 248.069 77.5754 231.775 87.2736 224.328C91.2749 221.255 99.9266 222.128 103.79 225.993C111.36 233.562 105.251 248.069 94.4968 248.069Z" fill="#3CA6A6"/>
<path d="M624.261 246.005C616.57 242.028 615.382 232.608 621.703 225.702C627.372 219.507 638.515 222.04 641.969 230.31C646.739 241.726 635.406 251.769 624.261 246.005Z" fill="#3CA6A6"/>
<path d="M136.988 273.1C119.057 252.076 117.862 250.186 119.797 245.937L121.414 242.388L152.329 242.41C169.332 242.422 184.085 242.966 185.116 243.619C186.145 244.273 188.545 248.168 190.447 252.276L193.908 259.746L189.445 264.914C186.991 267.755 181.334 273.914 176.877 278.6L168.772 287.121L158.861 287.125L148.95 287.128L136.988 273.1Z" fill="#3CA6A6"/>
<path d="M535.409 252.728C536.739 248.994 538.059 245.14 538.338 244.163C538.726 242.811 546.443 242.388 570.735 242.388H602.626L604.854 246.854L607.081 251.322L599.872 259.99C595.908 264.759 589.291 272.826 585.169 277.919L577.673 287.179L567.186 286.973L556.697 286.767L548.407 277.713C532.501 260.341 532.616 260.561 535.409 252.728Z" fill="#3CA6A6"/>
<path d="M257.384 297.771C245.83 275.563 242.701 267.181 244.952 264.469C245.955 263.259 247.608 262.269 248.623 262.269C251.37 262.269 289.926 282.081 299.162 288.238C321.828 303.349 338.693 328.904 341.081 351.757L341.991 360.458L336.453 356.673C328.958 351.55 319.766 346.953 306.506 341.694C277.289 330.108 271.527 324.956 257.384 297.771Z" fill="#3CA6A6"/>
<path d="M411.609 328.553C420.426 304.261 436.212 287.909 466.605 271.591C485.013 261.708 486.276 262.85 478.56 282.403C461.09 326.674 451.168 337.678 417.915 349.677C407.944 353.275 405.549 345.249 411.609 328.553Z" fill="#3CA6A6"/>
<path d="M180.254 296.351C179.855 295.089 184.292 288.846 191.153 281.019C197.517 273.758 203.454 268.129 204.343 268.509C210.904 271.312 221.855 273.807 225.345 273.296C228.414 272.845 229.926 273.396 230.967 275.343C233.765 280.571 252.101 325.234 251.639 325.697C251.219 326.117 220.99 319.004 194.808 312.326C184.492 309.694 184.455 309.653 180.254 296.351Z" fill="#3CA6A6"/>
<path d="M505.282 273.347C509.552 272.801 515.196 271.415 517.826 270.267C520.456 269.12 522.98 268.129 523.437 268.066C524.326 267.941 543.156 289.6 545.023 292.896C545.654 294.008 545.263 296.586 544.13 298.805C543.023 300.969 541.678 304.784 541.141 307.279C540.394 310.747 539.101 312.155 535.646 313.257C526.899 316.049 478.93 327.707 477.873 327.298C477.284 327.069 481.464 315.061 487.161 300.611L497.519 274.34L505.282 273.347Z" fill="#3CA6A6"/>
<path d="M151.185 320.602C145.888 315.305 145.634 308.983 150.52 304.098C159.261 295.356 174.327 305.188 169.617 316.56C166.185 324.849 157.364 326.782 151.185 320.602Z" fill="#3CA6A6"/>
<path d="M558.872 320.768C553.316 315.21 553.263 310.205 558.706 304.762C566.302 297.166 577.842 301.85 577.842 312.53C577.842 323.22 566.325 328.222 558.872 320.768Z" fill="#3CA6A6"/>
<path d="M43.9159 318.037C43.1562 314.081 43.7455 312.742 48.2069 308.28C56.6442 299.842 68.938 304.742 68.938 316.545C68.938 332.104 46.8679 333.421 43.9159 318.037Z" fill="#3CA6A6"/>
<path d="M660.691 326.196C653.75 320.735 654.604 309.832 662.311 305.523C667.257 302.759 673.793 304.02 677.735 308.5C687.332 319.406 672.129 335.193 660.691 326.196Z" fill="#3CA6A6"/>
<path d="M381.509 380.846C377.191 365.421 380.497 349.195 391.341 332.582C398.834 321.102 402.08 318.942 397.065 328.773C392.515 337.691 387.002 358.384 386.039 370.153C384.809 385.183 383.554 388.148 381.509 380.846Z" fill="#3CA6A6"/>
<path d="M364.242 482.381C358.949 422.974 344.087 392.283 307.602 365.421C297.736 358.159 298.575 357.027 309.914 362.307C337.612 375.204 359.712 401.641 367.213 430.851C370.156 442.312 371.987 465.387 373.385 508.653L374.165 532.794L371.37 526.917C368.368 520.607 366.741 510.439 364.242 482.381Z" fill="#3CA6A6"/>
<path d="M390.218 485.222C380.622 457.446 386.562 417.326 403.632 394.598C408.566 388.03 408.599 389.071 403.903 403.076C398.784 418.336 394.157 444.843 393.937 460.156C393.846 466.522 393.357 475.885 392.853 480.961L391.935 490.192L390.218 485.222Z" fill="#3CA6A6"/>
<path d="M337.986 531.374C342.82 512.72 344.324 464.733 340.585 448.299C340.035 445.873 340.243 445.199 341.247 446.169C343.556 448.403 348.583 475.666 350.278 495.162C355.522 555.422 340.267 581.51 292.223 594.454C281.413 597.365 278.73 596.625 286.543 592.883C310.418 581.452 331.555 556.179 337.986 531.374Z" fill="#3CA6A6"/>
<path d="M441.671 591.642C418.283 578.959 403.665 561.64 400.39 542.735C399.178 535.738 399.91 536.349 405.594 547.072C421.534 577.139 442.747 590.164 495.628 602.358C527.665 609.745 541.456 617.445 550.031 632.732C554.041 639.882 553.539 639.963 545.107 633.527C532.813 624.142 519.267 618.661 500.146 615.335C488.695 613.344 486.863 613.986 492.834 617.898C494.812 619.195 502.961 626.457 510.943 634.037C526.344 648.663 538.503 656.246 553.49 660.574C557.982 661.872 561.655 663.299 561.655 663.747C561.655 665.925 540.203 662.657 531.42 659.141C526.115 657.018 521.435 655.62 521.021 656.033C519.582 657.471 525.076 666.317 531.565 673.011L538.09 679.742L533.478 678.001C522.814 673.975 515.991 666.905 507.776 651.368C494.586 626.423 477.74 611.202 441.671 591.642Z" fill="#3CA6A6"/>
<path d="M400.116 605.415C389.076 595.263 379.984 571.534 382.144 558.509L383.061 552.983L387.55 564.899C393.088 579.597 398.858 588.133 409.239 596.98C424.942 610.36 429.591 615.233 431.779 620.602C433.994 626.036 433.993 626.042 430.734 625.068C425.432 623.48 406.656 611.43 400.116 605.415Z" fill="#3CA6A6"/>
<path d="M299.677 641.101C328.965 616.874 340.921 604.177 348.499 589.242C352.766 580.835 353.383 581.591 352.646 594.322C351.878 607.578 346.728 619.906 337.506 630.554C326.806 642.907 322.646 655.813 325.117 668.985L326.075 674.098L330.626 671.747C336.638 668.643 350.335 654.549 354.44 647.244C360.24 636.923 361.87 642.599 357.866 659.181C354.565 672.855 355.134 677.908 361.444 690.958C367.635 703.762 367.688 703.914 365.904 703.914C362.2 703.914 351.607 691.979 348.607 684.426C346.813 679.914 345.19 676.01 344.997 675.752C344.409 674.961 338.2 678.538 334.821 681.617C331.026 685.073 330.75 690.295 333.825 700.363C336.703 709.788 338.571 723.722 337.078 724.645C336.422 725.05 335.885 724.489 335.885 723.397C335.885 718.65 321.742 692.553 319.169 692.553C315.119 692.553 307.683 701.231 304.029 710.222C300.063 719.979 298.545 718.783 300.403 707.367C301.408 701.188 303.402 696.668 308.171 689.75C315.376 679.298 316.07 674.393 312.985 655.705L311.382 646.001L306.24 648.966C294.385 655.801 292.16 658.367 286.725 671.483C279.765 688.276 267.581 702.494 260.149 702.494C259.34 702.494 260.301 700.737 262.285 698.588C268.365 692.003 274.259 682.31 277.512 673.542L280.613 665.182L275.236 666.007L269.859 666.832L276.248 661.013C279.763 657.812 290.306 648.851 299.677 641.101Z" fill="#3CA6A6"/>
<path d="M198.422 623.654C209.389 611.652 224.878 605.014 254.305 599.701C270.118 596.847 272.152 596.838 268.443 599.64C262.892 603.835 235.295 617.262 223.3 621.602C209.486 626.602 199.525 632.672 195.223 638.716C192.577 642.431 175.622 655.631 173.495 655.631C172.251 655.631 189.952 632.922 198.422 623.654Z" fill="#3CA6A6"/>
<path d="M385.088 652.64C375.311 639.814 372.153 626.103 374.844 608.161C375.746 602.151 378.483 598.9 378.483 603.841C378.483 614.186 391.562 634.263 412.879 656.638C437.255 682.226 441.689 692.858 435.899 711.831L433.33 720.244L432.229 709.088C430.812 694.726 427.226 687.503 416.646 677.707C405.315 667.216 404.874 667.361 401.922 682.563C399.053 697.34 399.592 700.629 406.415 709.923C409.682 714.377 411.64 718.827 412.059 722.754L412.701 728.765L410.688 724.43C408.38 719.461 392.85 705.062 391.02 706.194C388.936 707.482 384.447 717.284 383.411 722.812C381.529 732.845 379.561 730.328 380.159 718.651C380.64 709.246 381.583 705.743 386.079 696.661C394.919 678.801 394.611 665.135 385.088 652.64Z" fill="#3CA6A6"/>
<path d="M131.415 618.943C147.551 614.578 164.935 611.324 177.563 610.308C189.962 609.308 191.786 609.606 187.491 611.932C181.965 614.924 170.364 628.189 163.667 639.174C154.868 653.609 153.948 652.213 160.991 635.108L166.628 621.414L150.797 622.234C142.089 622.684 131.131 623.397 126.445 623.818C115.333 624.817 117.477 622.715 131.415 618.943Z" fill="#3CA6A6"/>
<path d="M565.387 631.981C560.989 624.831 554.997 616.961 552.069 614.49L546.746 609.998L560.235 610.708C575.124 611.491 589.993 614.261 604.608 618.976C615.005 622.329 617.429 625.111 608.868 623.862C597.457 622.198 568.755 621.269 568.755 622.564C568.755 623.296 570.383 628.554 572.373 634.25C574.362 639.946 575.64 644.958 575.212 645.385C574.194 646.405 574.592 646.947 565.387 631.981Z" fill="#3CA6A6"/>
<path d="M218.612 649.258C238.296 636.395 266.716 621.768 281.928 616.67C298.479 611.124 298.604 611.261 288.318 623.679C285.083 627.584 277.721 637.17 271.957 644.98C258.536 663.166 242.32 680.102 231.655 687.073C219.962 694.716 219.535 693.946 229.772 683.677C239.378 674.041 249.022 661.124 256.399 648.012L261.083 639.685L256.241 640.693C244.098 643.224 231.336 651.07 221.517 662.04C210.909 673.895 209.976 674.318 212.933 665.934L214.967 660.171L206.204 664.119C201.385 666.291 194.055 668.784 189.918 669.66C180.8 671.588 181.113 671.583 181.113 669.832C181.113 669.051 181.912 668.412 182.888 668.41C186.49 668.409 202.169 660.002 218.612 649.258Z" fill="#3CA6A6"/>
<path d="M457.202 644.265C453.098 637.621 449.291 629.794 448.742 626.869C447.526 620.39 448.642 620.196 459.083 625.057C476.431 633.133 497.082 648.566 504.652 659.107C510.821 667.7 510.361 667.942 500.54 661.271C488.229 652.91 477.294 647.997 476.73 650.573C474.282 661.763 490.512 682.357 508.836 691.313C517.024 695.314 515.516 696.105 504.889 693.382C488.753 689.248 473.825 677.094 467.621 663.039C465.995 659.356 461.307 650.906 457.202 644.265Z" fill="#3CA6A6"/>
<path d="M224.421 630.299C217.67 633.816 218.666 632.381 226.183 627.76C229.118 625.956 232.159 624.467 232.94 624.456C234.732 624.426 231.708 626.502 224.421 630.299Z" fill="#3CA6A6"/>
<path d="M436.885 658.867C433.729 652.592 432.45 648.065 432.472 643.246L432.503 636.46L435.362 640.01C443.089 649.614 464.289 698.097 461.834 700.554C461.043 701.343 443.542 672.102 436.885 658.867Z" fill="#3CA6A6"/>
</svg>
